<?xml version="1.0"?>
<svg xmlns:rdf="http://www.w3.org/1999/02/22-rdf-syntax-ns#" xmlns="http://www.w3.org/2000/svg" xmlns:cc="http://web.resource.org/cc/" xmlns:xlink="http://www.w3.org/1999/xlink" xmlns:dc="http://purl.org/dc/elements/1.1/" xmlns:svg="http://www.w3.org/2000/svg" id="svg2" viewBox="0 0 225.48 316.53" version="1.0">
  <defs id="defs4">
    <linearGradient id="linearGradient4678">
      <stop id="stop4680" stop-color="#e5e5e5" offset="0"/>
      <stop id="stop4686" stop-color="#fff" offset=".16917"/>
      <stop id="stop4688" stop-color="#dbdbd6" offset=".75"/>
      <stop id="stop4682" stop-color="#eeeeec" offset="1"/>
    </linearGradient>
    <linearGradient id="linearGradient3659">
      <stop id="stop3661" stop-color="#fff" offset="0"/>
      <stop id="stop3663" stop-color="#eeeeec" offset="1"/>
    </linearGradient>
    <radialGradient id="radialGradient2947" gradientUnits="userSpaceOnUse" cy="558.59" cx="166.5" gradientTransform="matrix(1.1676 0 0 .34708 -17.252 344.78)" r="76.5">
      <stop id="stop9601" stop-color="#2e3436" offset="0"/>
      <stop id="stop9603" stop-color="#2e3436" stop-opacity="0" offset="1"/>
    </radialGradient>
    <linearGradient id="linearGradient2949" x1="35.092" xlink:href="#linearGradient4678" gradientUnits="userSpaceOnUse" y1="273.71" gradientTransform="matrix(.43001 0 0 .44367 94.101 416.5)" x2="295.1" y2="273.71"/>
    <radialGradient id="radialGradient2951" xlink:href="#linearGradient3659" gradientUnits="userSpaceOnUse" cy="255.33" cx="165.09" gradientTransform="matrix(.43537 0 0 .11325 93.219 497.86)" r="128.4"/>
    <radialGradient id="radialGradient2953" gradientUnits="userSpaceOnUse" cy="525.65" cx="157.82" gradientTransform="matrix(-.13309 .75057 -1.7965 -.31856 1124.1 572.97)" r="34.416">
      <stop id="stop10588" stop-color="#2e3436" offset="0"/>
      <stop id="stop10590" stop-color="#2e3436" stop-opacity="0" offset="1"/>
    </radialGradient>
    <linearGradient id="linearGradient2955" x1="152.74" gradientUnits="userSpaceOnUse" y1="413.4" gradientTransform="matrix(.86720 0 0 .86720 21.925 50.78)" x2="177.74" y2="413.4">
      <stop id="stop5664" stop-color="#fff" offset="0"/>
      <stop id="stop5670" stop-color="#d5d5d0" offset=".044959"/>
      <stop id="stop5674" stop-color="#fff" offset=".27419"/>
      <stop id="stop6645" stop-color="#9f9f9b" offset=".70774"/>
      <stop id="stop6647" stop-color="#e4e4e3" offset=".85387"/>
      <stop id="stop5666" stop-color="#3f3f38" offset="1"/>
    </linearGradient>
    <linearGradient id="linearGradient2957" x1="35.092" xlink:href="#linearGradient4678" gradientUnits="userSpaceOnUse" y1="273.71" gradientTransform="matrix(.86720 0 0 .86720 21.925 50.78)" x2="295.1" y2="273.71"/>
    <radialGradient id="radialGradient2959" xlink:href="#linearGradient3659" gradientUnits="userSpaceOnUse" cy="198.02" cx="115.7" gradientTransform="matrix(1.0666 .32219 -.095710 .31685 17.274 161.58)" r="128.4"/>
  </defs>
  <g id="layer6" transform="translate(-52.355 -248.69)">
    <g id="g2938">
      <path id="path8627" opacity=".1" fill="url(#radialGradient2947)" d="m266.47 538.66c0 14.66-40.01 26.55-89.32 26.55-49.3 0-89.318-11.89-89.318-26.55s40.018-26.55 89.318-26.55c49.31 0 89.32 11.89 89.32 26.55z"/>
      <path id="path6667" fill="url(#linearGradient2949)" d="m220.99 527.08c-42.92-1.4-63.33-2.48-111.8 0v8.67c0 6.58 25.05 13.74 55.9 13.74 30.86 0 55.9-7.16 55.9-13.74 0-0.04 0.01-0.07 0-0.11v-8.56z"/>
      <path id="path6669" fill="url(#radialGradient2951)" d="m220.99 526.77c0 8.03-25.04 14.54-55.9 14.54s-55.9-6.51-55.9-14.54 25.04-14.54 55.9-14.54 55.9 6.51 55.9 14.54z"/>
      <path id="path9607" opacity=".1" fill-rule="evenodd" fill="url(#radialGradient2953)" d="m174.78 524.9l-17.81 4.01 22.95 11.7 0.12 8.35c18.39-1.38 32.64-5.22 38.36-9.43l0.08-8.51-43.7-6.12z"/>
      <path id="rect4690" fill="url(#linearGradient2955)" d="m154.38 287.66h21.68v236.77c0 5.32-3.74 6.47-10.84 6.47-7.02 0-10.84-2.45-10.84-7.53v-235.71z"/>
      <path id="path3701" fill="url(#linearGradient2957)" d="m277.83 272c-86.57-2.74-127.73-4.85-225.47 0l-0.002 11.65c-0.003 0.07 0 0.14 0 0.22 0 12.87 50.502 23.3 112.73 23.3 62.23 0 112.74-10.43 112.74-23.3v-11.87z"/>
      <path id="path2687" fill="url(#radialGradient2959)" d="m277.83 272c0 12.87-50.51 23.32-112.74 23.32s-112.74-10.45-112.74-23.32c0.005-12.87 50.51-23.31 112.74-23.31s112.74 10.44 112.74 23.31z"/>
    </g>
  </g>
  <metadata>
    <rdf:RDF>
      <cc:Work>
        <dc:format>image/svg+xml</dc:format>
        <dc:type rdf:resource="http://purl.org/dc/dcmitype/StillImage"/>
        <cc:license rdf:resource="http://creativecommons.org/licenses/publicdomain/"/>
        <dc:publisher>
          <cc:Agent rdf:about="http://openclipart.org/">
            <dc:title>Openclipart</dc:title>
          </cc:Agent>
        </dc:publisher>
        <dc:title>pub table</dc:title>
        <dc:date>2007-04-16T09:59:41</dc:date>
        <dc:description>A pub table i drawn a while ago, it was used for a invitation for a party. Maybe it is useful for others, too. :)</dc:description>
        <dc:source>http://openclipart.org/detail/4016/pub-table-by-needcoffee-4016</dc:source>
        <dc:creator>
          <cc:Agent>
            <dc:title>needcoffee</dc:title>
          </cc:Agent>
        </dc:creator>
        <dc:subject>
          <rdf:Bag>
            <rdf:li>bottle</rdf:li>
            <rdf:li>clip art</rdf:li>
            <rdf:li>clipart</rdf:li>
            <rdf:li>glass</rdf:li>
            <rdf:li>image</rdf:li>
            <rdf:li>indoor</rdf:li>
            <rdf:li>media</rdf:li>
            <rdf:li>outdoor</rdf:li>
            <rdf:li>party</rdf:li>
            <rdf:li>png</rdf:li>
            <rdf:li>pub</rdf:li>
            <rdf:li>public domain</rdf:li>
            <rdf:li>svg</rdf:li>
            <rdf:li>table</rdf:li>
          </rdf:Bag>
        </dc:subject>
      </cc:Work>
      <cc:License rdf:about="http://creativecommons.org/licenses/publicdomain/">
        <cc:permits rdf:resource="http://creativecommons.org/ns#Reproduction"/>
        <cc:permits rdf:resource="http://creativecommons.org/ns#Distribution"/>
        <cc:permits rdf:resource="http://creativecommons.org/ns#DerivativeWorks"/>
      </cc:License>
    </rdf:RDF>
  </metadata>
</svg>
