<?xml version="1.0"?>
<svg xmlns:rdf="http://www.w3.org/1999/02/22-rdf-syntax-ns#" xmlns="http://www.w3.org/2000/svg" xmlns:cc="http://web.resource.org/cc/" xmlns:xlink="http://www.w3.org/1999/xlink" xmlns:dc="http://purl.org/dc/elements/1.1/" xmlns:svg="http://www.w3.org/2000/svg" id="Layer_1" xml:space="preserve" overflow="visible" viewBox="0 0 289.07 164.759" version="1.1" enable-background="new 0 0 289.07 164.759">
<linearGradient id="XMLID_6_" y2="12.758" gradientUnits="userSpaceOnUse" y1="140.6" x2="144.54" x1="144.54">
	<stop stop-color="#fff" offset="0"/>
	<stop stop-color="#A0DDF9" offset="1"/>
</linearGradient>
<path d="m288.57 153.73c0 5.803-4.704 10.507-10.507 10.507h-267.05c-5.803 0-10.507-4.705-10.507-10.507v-142.72c-0.003-5.805 4.701-10.51 10.504-10.51h267.06c5.803 0 10.507 4.705 10.507 10.507v142.72z" fill="url(#XMLID_6_)"/>
	<circle stroke="#72584B" cx="50.425" r="13.321" cy="44.688" fill="#723C1A"/>
	<rect height="4.607" width="11.718" stroke="#808284" y="69.497" x="44.566" fill="#EBC19C"/>
	<path stroke="#808284" d="m25.136 79.913c-4.223 5.609 0 27.442 0 27.442h25.456v-33.256s-21.233 0.201-25.456 5.809zm50.912 0c-4.224-5.608-25.456-5.809-25.456-5.809v33.251h25.456s4.223-21.838 0-27.447z" fill="#E0F3FD"/>
	<path d="m26.963 81.884c-3.92 5.205 0 25.471 0 25.471h23.628v-30.868c0.001 0-19.707 0.186-23.628 5.392zm47.258 0c-3.92-5.206-23.628-5.393-23.628-5.393v30.864h23.628s3.92-20.271 0-25.476z" fill="#fff"/>
	<path stroke="#72584B" d="m56.434 69.497s-1.369 2.304-6.009 2.304-6.009-2.304-6.009-2.304-6.009-1.152-6.009-7.036v-10.738s-0.182-6.854 1.335-8.371c0 1.907 3.105 2.904 3.105 2.904s1.636-5.275 6.543-5.275c-1.102 3.075 6.51 4.808 6.51 4.808s2.604-4.938 4.607-4.437c2.003 0.501 1.937 10.371 1.937 10.371v10.738c-0.001 6.135-6.01 7.036-6.01 7.036z" fill="#EBC19C"/>
	<path d="m55.532 67.532s-1.163 1.958-5.108 1.958c-3.944 0-5.108-1.958-5.108-1.958s-5.108-0.979-5.108-5.981v-9.126s-0.518-5.827 0.772-7.116c0 1.62 3.001 2.468 3.001 2.468s1.391-4.483 5.563-4.483c-0.937 2.614 5.534 4.086 5.534 4.086s2.213-4.197 3.916-3.771c1.703 0.426 1.646 8.816 1.646 8.816v9.126c0.001 5.215-5.108 5.981-5.108 5.981z" fill="#F0D0B4"/>
	<rect y="75.047" x="47.994" width="5.124" transform="matrix(.7072 -.7071 .7071 .7072 -40.069 58.474)" height="5.124"/>
	<polygon points="54.18 103.15 50.556 106.77 46.933 103.15 50.556 80.596"/>
	<path stroke="#808284" d="m50.491 74.554s-4.657-4.988-6.694-3.218c-2.036 1.771 0.785 8.175 0.785 8.175l5.909-4.957z" fill="#E0F3FD"/>
	<path stroke="#808284" d="m50.811 74.554s4.657-4.988 6.694-3.218c2.036 1.771-0.785 8.175-0.785 8.175l-5.909-4.957z" fill="#E0F3FD"/>
	<path d="m50.512 74.642s-4.055-4.344-5.829-2.802c-1.773 1.542 0.015 7.384 0.015 7.384l5.814-4.582z" fill="#fff"/>
	<path d="m50.79 74.642s4.056-4.344 5.829-2.802 0.026 7.431 0.026 7.431l-5.855-4.629z" fill="#fff"/>
	<path d="m48.087 58.28s3.906 1.502 3.906-0.4c0-1.903-0.601-8.814-0.601-8.814s3.806 9.415 2.504 10.717c-1.302 1.301-4.707 2.804-5.809-1.503z" fill="#EBC19C"/>
	<circle stroke="#72584B" cx="140.31" r="13.321" cy="44.688" fill="#723C1A"/>
	<rect height="4.607" width="11.717" stroke="#808284" y="69.497" x="134.45" fill="#EBC19C"/>
	<path stroke="#808284" d="m115.02 79.913c-4.223 5.609 0 27.442 0 27.442h25.456v-33.256s-21.24 0.201-25.46 5.809zm50.91 0c-4.225-5.608-25.457-5.809-25.457-5.809v33.251h25.457s4.22-21.838 0-27.447z" fill="#E0F3FD"/>
	<path d="m116.85 81.884c-3.92 5.205 0 25.471 0 25.471h23.628v-30.868s-19.71 0.186-23.63 5.392zm47.25 0c-3.92-5.206-23.629-5.393-23.629-5.393v30.864h23.629s3.92-20.271 0-25.476z" fill="#fff"/>
	<path stroke="#72584B" d="m146.32 69.497s-1.368 2.304-6.009 2.304c-4.64 0-6.009-2.304-6.009-2.304s-6.01-1.152-6.01-7.036v-10.738s-0.182-6.854 1.336-8.371c0 1.907 3.104 2.904 3.104 2.904s1.636-5.275 6.544-5.275c-1.103 3.075 6.51 4.808 6.51 4.808s2.604-4.938 4.606-4.437 1.937 10.371 1.937 10.371v10.738c0 6.135-6.01 7.036-6.01 7.036z" fill="#EBC19C"/>
	<path d="m145.42 67.532s-1.163 1.958-5.108 1.958c-3.943 0-5.107-1.958-5.107-1.958s-5.107-0.979-5.107-5.981v-9.126s-0.518-5.827 0.771-7.116c0 1.62 3.002 2.468 3.002 2.468s1.391-4.483 5.563-4.483c-0.938 2.614 5.533 4.086 5.533 4.086s2.213-4.197 3.916-3.771c1.703 0.426 1.646 8.816 1.646 8.816v9.126c0 5.215-5.1 5.981-5.1 5.981z" fill="#F0D0B4"/>
	<rect y="75.047" x="137.88" width="5.124" transform="matrix(.7071 -.7071 .7071 .7071 -13.744 122.04)" height="5.124"/>
	<polygon points="144.06 103.15 140.44 106.77 136.82 103.15 140.44 80.596"/>
	<path stroke="#808284" d="m140.37 74.554s-4.657-4.988-6.694-3.218c-2.035 1.771 0.785 8.175 0.785 8.175l5.91-4.957z" fill="#E0F3FD"/>
	<path stroke="#808284" d="m140.69 74.554s4.657-4.988 6.693-3.218c2.037 1.771-0.784 8.175-0.784 8.175l-5.91-4.957z" fill="#E0F3FD"/>
	<path d="m140.4 74.642s-4.055-4.344-5.828-2.802 0.015 7.384 0.015 7.384l5.82-4.582z" fill="#fff"/>
	<path d="m140.67 74.642s4.056-4.344 5.829-2.802 0.025 7.431 0.025 7.431l-5.85-4.629z" fill="#fff"/>
	<path d="m137.97 58.28s3.905 1.502 3.905-0.4c0-1.903-0.601-8.814-0.601-8.814s3.806 9.415 2.504 10.717c-1.3 1.301-4.71 2.804-5.81-1.503z" fill="#EBC19C"/>
	<circle stroke="#72584B" cx="230.13" r="13.321" cy="44.688" fill="#723C1A"/>
	<rect height="4.607" width="11.717" stroke="#808284" y="69.497" x="224.28" fill="#EBC19C"/>
	<path stroke="#808284" d="m204.84 79.913c-4.224 5.609 0 27.442 0 27.442h25.456v-33.256s-21.23 0.201-25.46 5.809zm50.92 0c-4.225-5.608-25.457-5.809-25.457-5.809v33.251h25.457s4.22-21.838 0-27.447z" fill="#E0F3FD"/>
	<path d="m206.67 81.884c-3.92 5.205 0 25.471 0 25.471h23.629v-30.868s-19.71 0.186-23.63 5.392zm47.26 0c-3.92-5.206-23.629-5.393-23.629-5.393v30.864h23.629s3.92-20.271 0-25.476z" fill="#fff"/>
	<path stroke="#72584B" d="m236.14 69.497s-1.368 2.304-6.009 2.304c-4.64 0-6.009-2.304-6.009-2.304s-6.01-1.152-6.01-7.036v-10.738s-0.182-6.854 1.336-8.371c0 1.907 3.104 2.904 3.104 2.904s1.636-5.275 6.544-5.275c-1.103 3.075 6.51 4.808 6.51 4.808s2.604-4.938 4.606-4.437 1.937 10.371 1.937 10.371v10.738c0 6.135-6.01 7.036-6.01 7.036z" fill="#EBC19C"/>
	<path d="m235.24 67.532s-1.163 1.958-5.108 1.958c-3.943 0-5.107-1.958-5.107-1.958s-5.107-0.979-5.107-5.981v-9.126s-0.518-5.827 0.771-7.116c0 1.62 3.002 2.468 3.002 2.468s1.391-4.483 5.563-4.483c-0.938 2.614 5.533 4.086 5.533 4.086s2.213-4.197 3.916-3.771c1.703 0.426 1.646 8.816 1.646 8.816v9.126c0.01 5.215-5.1 5.981-5.1 5.981z" fill="#F0D0B4"/>
	<rect y="75.047" x="227.7" width="5.124" transform="matrix(.7071 -.7071 .7071 .7071 12.566 185.55)" height="5.124"/>
	<polygon points="233.89 103.15 230.27 106.77 226.64 103.15 230.27 80.596"/>
	<path stroke="#808284" d="m230.2 74.554s-4.657-4.988-6.694-3.218c-2.035 1.771 0.785 8.175 0.785 8.175l5.9-4.957z" fill="#E0F3FD"/>
	<path stroke="#808284" d="m230.52 74.554s4.657-4.988 6.693-3.218c2.037 1.771-0.784 8.175-0.784 8.175l-5.91-4.957z" fill="#E0F3FD"/>
	<path d="m230.22 74.642s-4.055-4.344-5.828-2.802 0.015 7.384 0.015 7.384l5.82-4.582z" fill="#fff"/>
	<path d="m230.5 74.642s4.056-4.344 5.829-2.802 0.025 7.431 0.025 7.431l-5.86-4.629z" fill="#fff"/>
	<path d="m227.8 58.28s3.905 1.502 3.905-0.4c0-1.903-0.601-8.814-0.601-8.814s3.806 9.415 2.504 10.717c-1.3 1.301-4.7 2.804-5.8-1.503z" fill="#EBC19C"/>
<ellipse rx="138.11" ry="28.492" stroke="#937952" cy="123.08" cx="143.3" fill="#490E00"/>
<ellipse rx="138.11" ry="28.492" stroke="#937952" cy="118.08" cx="143.3" fill="#77562F"/>
<path d="m125.25 96.49s-158.55 12.746-70.254 30.246 115 6.123 115 6.123-146.48-9.38-44.75-36.37z" fill="#A8916D"/>
	<rect height="5.679" width="14.445" stroke="#808284" y="117.59" x="88.526" fill="#EBC19C"/>
	<path stroke="#808284" d="m64.573 130.43c-5.206 6.915 0 33.83 0 33.83h31.381v-40.99s-26.174 0.25-31.381 7.16zm62.767 0c-5.207-6.914-31.381-7.161-31.381-7.161v40.99h31.381s5.2-26.92 0-33.83z" fill="#E0F3FD"/>
	<path d="m66.826 132.86c-4.832 6.417 0 31.399 0 31.399h29.128v-38.047s-24.295 0.23-29.128 6.65zm58.254 0c-4.833-6.417-29.128-6.647-29.128-6.647v38.047h29.128s4.83-24.98 0-31.4z" fill="#fff"/>
	<path stroke="#72584B" d="m103.16 117.59s-1.688 2.84-7.408 2.84-7.408-2.84-7.408-2.84-7.408-1.42-7.408-8.673v-13.243s-0.224-8.449 1.646-10.319c0 2.351 3.828 3.58 3.828 3.58s2.017-6.502 8.066-6.502c-1.358 3.791 8.025 5.927 8.025 5.927s3.209-6.087 5.679-5.469c2.469 0.618 2.387 12.784 2.387 12.784v13.236c-0.01 7.57-7.41 8.68-7.41 8.68z" fill="#EBC19C"/>
	<path d="m102.04 115.17s-1.434 2.414-6.297 2.414c-4.862 0-6.297-2.414-6.297-2.414s-6.296-1.207-6.296-7.373v-11.25s-0.638-7.183 0.952-8.772c0 1.997 3.7 3.043 3.7 3.043s1.715-5.527 6.857-5.527c-1.155 3.222 6.822 5.038 6.822 5.038s2.728-5.174 4.827-4.649c2.099 0.525 2.029 10.868 2.029 10.868v11.25c0 6.42-6.3 7.37-6.3 7.37z" fill="#F0D0B4"/>
	<path d="m92.867 103.76s4.815 1.852 4.815-0.494-0.741-10.865-0.741-10.865 4.692 11.605 3.087 13.211c-1.608 1.6-5.805 3.45-7.163-1.86z" fill="#EBC19C"/>
	<path stroke="#fff" d="m112.17 87.006c0 9.069-7.353 30.574-16.422 30.574-9.068 0-16.42-21.505-16.42-30.574s7.352-16.421 16.42-16.421c9.072 0 16.422 7.353 16.422 16.421z" fill="#723C1A"/>
	<path stroke="#808284" d="m105.09 123.37c0 1.855-1.504 3.358-3.359 3.358h-11.944c-1.855 0-3.359-1.503-3.359-3.358s1.504-3.359 3.359-3.359h11.947c1.86 0 3.36 1.51 3.36 3.36z" fill="#E0F3FD"/>
	<path d="m104.83 124.26c0 1.076-1.462 1.949-3.265 1.949h-11.607c-1.803 0-3.265-0.873-3.265-1.949 0-1.077 1.462-1.949 3.265-1.949h11.612c1.81 0 3.27 0.88 3.27 1.95z" fill="#fff"/>
	<rect height="5.679" width="14.444" stroke="#808284" y="117.59" x="178.19" fill="#EBC19C"/>
	<path stroke="#808284" d="m154.24 130.43c-5.206 6.915 0 33.83 0 33.83h31.381v-40.99s-26.17 0.25-31.38 7.16zm62.76 0c-5.207-6.914-31.382-7.161-31.382-7.161v40.99h31.382s5.21-26.92 0-33.83z" fill="#E0F3FD"/>
	<path d="m156.49 132.86c-4.832 6.417 0 31.399 0 31.399h29.128v-38.047s-24.29 0.23-29.13 6.65zm58.26 0c-4.834-6.417-29.129-6.647-29.129-6.647v38.047h29.129s4.83-24.98 0-31.4z" fill="#fff"/>
	<path stroke="#72584B" d="m192.82 117.59s-1.688 2.84-7.408 2.84-7.407-2.84-7.407-2.84-7.408-1.42-7.408-8.673v-13.243s-0.225-8.449 1.646-10.319c0 2.351 3.827 3.58 3.827 3.58s2.017-6.502 8.066-6.502c-1.358 3.791 8.024 5.927 8.024 5.927s3.21-6.087 5.68-5.469c2.469 0.618 2.387 12.784 2.387 12.784v13.236c0 7.57-7.41 8.68-7.41 8.68z" fill="#EBC19C"/>
	<path d="m191.71 115.17s-1.434 2.414-6.297 2.414c-4.861 0-6.297-2.414-6.297-2.414s-6.296-1.207-6.296-7.373v-11.25s-0.638-7.183 0.952-8.772c0 1.997 3.7 3.043 3.7 3.043s1.715-5.527 6.856-5.527c-1.154 3.222 6.822 5.038 6.822 5.038s2.728-5.174 4.827-4.649c2.099 0.525 2.029 10.868 2.029 10.868v11.25c0.01 6.42-6.29 7.37-6.29 7.37z" fill="#F0D0B4"/>
	<path d="m182.53 103.76s4.815 1.852 4.815-0.494-0.741-10.865-0.741-10.865 4.692 11.605 3.087 13.211c-1.6 1.6-5.8 3.45-7.16-1.86z" fill="#EBC19C"/>
	<path stroke="#fff" d="m201.84 87.006c0 9.069-7.352 30.574-16.422 30.574-9.068 0-16.42-21.505-16.42-30.574s7.353-16.421 16.421-16.421c9.06 0 16.42 7.353 16.42 16.421z" fill="#723C1A"/>
	<path stroke="#808284" d="m194.76 123.37c0 1.855-1.504 3.358-3.358 3.358h-11.946c-1.855 0-3.359-1.503-3.359-3.358s1.504-3.359 3.359-3.359h11.946c1.85 0 3.36 1.51 3.36 3.36z" fill="#E0F3FD"/>
	<path d="m194.5 124.26c0 1.076-1.461 1.949-3.264 1.949h-11.62c-1.803 0-3.265-0.873-3.265-1.949 0-1.077 1.462-1.949 3.265-1.949h11.612c1.81 0 3.27 0.88 3.27 1.95z" fill="#fff"/>
<path stroke="#00ADEF" d="m288.57 153.73c0 5.803-4.704 10.507-10.507 10.507h-267.05c-5.803 0-10.507-4.705-10.507-10.507v-142.72c-0.003-5.805 4.701-10.51 10.504-10.51h267.06c5.803 0 10.507 4.705 10.507 10.507v142.72z" fill="none"/>
<metadata><rdf:RDF><cc:Work><dc:format>image/svg+xml</dc:format><dc:type rdf:resource="http://purl.org/dc/dcmitype/StillImage"/><cc:license rdf:resource="http://creativecommons.org/licenses/publicdomain/"/><dc:publisher><cc:Agent rdf:about="http://openclipart.org/"><dc:title>Openclipart</dc:title></cc:Agent></dc:publisher><dc:title>Round Table Discussion</dc:title><dc:date>2007-10-31T12:23:41</dc:date><dc:description>Icons of users sitting around a round table against a blue shaded background.</dc:description><dc:source>http://openclipart.org/detail/7661/round-table-discussion-by-neocreo</dc:source><dc:creator><cc:Agent><dc:title>neocreo</dc:title></cc:Agent></dc:creator><dc:subject><rdf:Bag><rdf:li>cartoon</rdf:li><rdf:li>clip art</rdf:li><rdf:li>clipart</rdf:li><rdf:li>discussion</rdf:li><rdf:li>face</rdf:li><rdf:li>icon</rdf:li><rdf:li>image</rdf:li><rdf:li>man</rdf:li><rdf:li>media</rdf:li><rdf:li>men</rdf:li><rdf:li>people</rdf:li><rdf:li>png</rdf:li><rdf:li>public domain</rdf:li><rdf:li>shirt</rdf:li><rdf:li>suit</rdf:li><rdf:li>svg</rdf:li><rdf:li>table</rdf:li><rdf:li>tie</rdf:li></rdf:Bag></dc:subject></cc:Work><cc:License rdf:about="http://creativecommons.org/licenses/publicdomain/"><cc:permits rdf:resource="http://creativecommons.org/ns#Reproduction"/><cc:permits rdf:resource="http://creativecommons.org/ns#Distribution"/><cc:permits rdf:resource="http://creativecommons.org/ns#DerivativeWorks"/></cc:License></rdf:RDF></metadata></svg>
